<?xml version="1.0" standalone="no"?>
<!DOCTYPE svg PUBLIC "-//W3C//DTD SVG 20010904//EN"
 "http://www.w3.org/TR/2001/REC-SVG-20010904/DTD/svg10.dtd">
<svg version="1.0" xmlns="http://www.w3.org/2000/svg"
 width="512.000000pt" height="512.000000pt" viewBox="0 0 512.000000 512.000000"
 preserveAspectRatio="xMidYMid meet">
<metadata>
Created by potrace 1.14, written by Peter Selinger 2001-2017
</metadata>
<g transform="translate(0.000000,512.000000) scale(0.100000,-0.100000)"
fill="#000000" stroke="none">
<path d="M0 2560 l0 -2560 2560 0 2560 0 0 2560 0 2560 -2560 0 -2560 0 0
-2560z m2522 333 l3 -467 230 255 c126 140 234 257 240 261 12 9 205 11 205 2
0 -6 -282 -305 -472 -499 l-78 -80 258 -271 c141 -149 266 -281 276 -293 l19
-21 -100 0 -101 0 -232 253 c-127 138 -236 254 -241 255 -5 2 -9 -103 -9 -252
l0 -256 -75 0 -75 0 0 790 0 790 75 0 75 0 2 -467z m-947 367 c342 -107 540
-401 522 -775 -9 -173 -52 -304 -141 -429 -173 -243 -499 -351 -804 -266 -252
70 -441 266 -508 525 -26 99 -26 323 0 420 73 282 281 480 566 541 94 20 275
12 365 -16z m2507 -329 c89 -34 175 -97 224 -163 l43 -59 3 118 3 118 73 3 72
3 0 -586 0 -585 -75 0 -75 0 0 122 0 122 -28 -45 c-173 -271 -617 -294 -841
-42 -99 111 -144 244 -145 423 0 198 49 327 168 445 74 73 142 113 238 140 80
22 265 15 340 -14z"/>
<path d="M1265 3150 c-229 -32 -415 -208 -471 -446 -21 -91 -21 -267 0 -359
50 -211 199 -371 401 -431 88 -26 249 -24 340 4 197 60 341 218 391 427 10 43
16 112 16 180 0 133 -19 222 -70 325 -65 134 -203 247 -343 284 -75 19 -191
26 -264 16z"/>
<path d="M3808 2819 c-66 -15 -152 -65 -200 -117 -53 -57 -79 -104 -103 -186
-24 -81 -17 -268 12 -348 58 -158 191 -259 359 -275 220 -20 420 128 464 344
18 85 8 245 -19 315 -47 122 -151 222 -268 258 -69 21 -177 25 -245 9z"/>
</g>
</svg>
